<?xml version="1.0" encoding="utf-8"?>
<!-- Generator: Adobe Illustrator 24.3.0, SVG Export Plug-In . SVG Version: 6.00 Build 0)  -->
<svg version="1.1" id="Layer_1" xmlns="http://www.w3.org/2000/svg" xmlns:xlink="http://www.w3.org/1999/xlink" x="0px" y="0px"
	 viewBox="0 0 841.89 595.28" style="enable-background:new 0 0 841.89 595.28;" xml:space="preserve">
<style type="text/css">
	.st0{display:none;fill:#1E1E1C;}
	.st1{display:none;fill:url(#SVGID_1_);}
	.st2{display:none;fill:url(#SVGID_2_);}
	.st3{display:none;fill:url(#SVGID_3_);}
	.st4{display:none;}
	.st5{display:inline;}
	.st6{display:none;fill:url(#SVGID_4_);}
</style>
<rect x="-3.47" class="st0" width="425.66" height="595.28"/>
<linearGradient id="SVGID_1_" gradientUnits="userSpaceOnUse" x1="277.1385" y1="215.3079" x2="474.7908" y2="258.5809">
	<stop  offset="0" style="stop-color:#A97D27"/>
	<stop  offset="0.124" style="stop-color:#F2F1D4"/>
	<stop  offset="0.1589" style="stop-color:#E9E2BC"/>
	<stop  offset="0.2455" style="stop-color:#D5C38A"/>
	<stop  offset="0.3216" style="stop-color:#C7AD67"/>
	<stop  offset="0.3833" style="stop-color:#BFA052"/>
	<stop  offset="0.4229" style="stop-color:#BB9C4B"/>
	<stop  offset="0.592" style="stop-color:#B27E25"/>
	<stop  offset="0.6493" style="stop-color:#B38027"/>
	<stop  offset="0.6911" style="stop-color:#B7862F"/>
	<stop  offset="0.728" style="stop-color:#BE923D"/>
	<stop  offset="0.7621" style="stop-color:#C8A354"/>
	<stop  offset="0.7943" style="stop-color:#D5BA72"/>
	<stop  offset="0.8246" style="stop-color:#E6D799"/>
	<stop  offset="0.8312" style="stop-color:#EADEA3"/>
	<stop  offset="0.9704" style="stop-color:#8C672C"/>
</linearGradient>
<path class="st1" d="M477.43,233.32c4.84-5.66,4.84-5.66,4.84-5.66s-9.37-4.51-14.94-8.8c-5.56-4.28-13.47-14.18-13.57-35.78
	c-0.1-21.61-5.99-32.35-5.99-32.35c-1.33-11.22,5.54,43.43-35.7,91.08c-40.9,47.29-35.67,80.1-5.18,105.3
	c-0.24-0.54-7.3-16.29,1.53-33.85c8.97-17.86,11.39-28.86,56.99-27.83c0,0,9.74,0.26,7.98-15.4c0,0-1.89-5.91,2.1-9.13
	c4.01-3.23-0.77-9.43-0.77-9.43s5.55-1.77,3.3-6.06C475.77,241.09,472.59,238.98,477.43,233.32z M395.61,315.42
	c-2.97-29.82,24.42-56.36,29.32-60.86c0.37-0.32,0.6-0.53,0.71-0.61C395.88,286.14,395.61,315.42,395.61,315.42z M389.75,308.11
	c-1.2-37.68,35.47-68.07,42.02-73.2c0.48-0.38,0.8-0.61,0.93-0.7C392.58,271.45,389.75,308.11,389.75,308.11z"/>
<linearGradient id="SVGID_2_" gradientUnits="userSpaceOnUse" x1="286.3871" y1="173.0643" x2="484.0394" y2="216.3372">
	<stop  offset="0" style="stop-color:#A97D27"/>
	<stop  offset="0.124" style="stop-color:#F2F1D4"/>
	<stop  offset="0.1589" style="stop-color:#E9E2BC"/>
	<stop  offset="0.2455" style="stop-color:#D5C38A"/>
	<stop  offset="0.3216" style="stop-color:#C7AD67"/>
	<stop  offset="0.3833" style="stop-color:#BFA052"/>
	<stop  offset="0.4229" style="stop-color:#BB9C4B"/>
	<stop  offset="0.592" style="stop-color:#B27E25"/>
	<stop  offset="0.6493" style="stop-color:#B38027"/>
	<stop  offset="0.6911" style="stop-color:#B7862F"/>
	<stop  offset="0.728" style="stop-color:#BE923D"/>
	<stop  offset="0.7621" style="stop-color:#C8A354"/>
	<stop  offset="0.7943" style="stop-color:#D5BA72"/>
	<stop  offset="0.8246" style="stop-color:#E6D799"/>
	<stop  offset="0.8312" style="stop-color:#EADEA3"/>
	<stop  offset="0.9704" style="stop-color:#8C672C"/>
</linearGradient>
<path class="st2" d="M414.18,183.71c0,0-26.73-47.33-65.46-41.02c0,0-2.46,42.19,50.54,54.45c0,0-33.9,10.18-44.16,37.29
	c0,0,23.63,14.5,54.11-20.96c0,0-7.74,8.43-29.46,8.63c0,0,10.44-19.62,31.07-24.68c0,0-31.67-11.27-35.84-34.15
	C374.97,163.27,395.55,164.61,414.18,183.71z"/>
<linearGradient id="SVGID_3_" gradientUnits="userSpaceOnUse" x1="287.6783" y1="167.1666" x2="485.3306" y2="210.4396">
	<stop  offset="0" style="stop-color:#A97D27"/>
	<stop  offset="0.124" style="stop-color:#F2F1D4"/>
	<stop  offset="0.1589" style="stop-color:#E9E2BC"/>
	<stop  offset="0.2455" style="stop-color:#D5C38A"/>
	<stop  offset="0.3216" style="stop-color:#C7AD67"/>
	<stop  offset="0.3833" style="stop-color:#BFA052"/>
	<stop  offset="0.4229" style="stop-color:#BB9C4B"/>
	<stop  offset="0.592" style="stop-color:#B27E25"/>
	<stop  offset="0.6493" style="stop-color:#B38027"/>
	<stop  offset="0.6911" style="stop-color:#B7862F"/>
	<stop  offset="0.728" style="stop-color:#BE923D"/>
	<stop  offset="0.7621" style="stop-color:#C8A354"/>
	<stop  offset="0.7943" style="stop-color:#D5BA72"/>
	<stop  offset="0.8246" style="stop-color:#E6D799"/>
	<stop  offset="0.8312" style="stop-color:#EADEA3"/>
	<stop  offset="0.9704" style="stop-color:#8C672C"/>
</linearGradient>
<path class="st3" d="M429.16,141.8c0,0-4.01,17.84-16.19,26.61c0,0,21.21,31.27-23.85,77.3
	C389.11,245.71,445.61,205.09,429.16,141.8z"/>
<g class="st4">
	<path class="st5" d="M263.3,458.68h1.26c0.01,1.19,0.35,2.12,1.03,2.78c0.67,0.66,1.62,0.99,2.84,0.99c1.07,0,1.91-0.27,2.53-0.8
		c0.61-0.53,0.92-1.27,0.92-2.2c0-0.87-0.21-1.52-0.64-1.98c-0.43-0.45-1.29-0.86-2.57-1.23l-1.31-0.36
		c-1.41-0.4-2.38-0.9-2.92-1.52c-0.54-0.61-0.81-1.48-0.81-2.59c0-1.23,0.41-2.21,1.22-2.96c0.82-0.74,1.91-1.11,3.27-1.11
		c1.44,0,2.57,0.41,3.39,1.22c0.81,0.81,1.23,1.94,1.25,3.4h-1.28c-0.02-1.08-0.32-1.91-0.92-2.5c-0.59-0.59-1.42-0.88-2.49-0.88
		c-1.01,0-1.79,0.25-2.34,0.75c-0.55,0.5-0.83,1.21-0.83,2.12c0,0.7,0.18,1.25,0.54,1.65c0.36,0.4,0.96,0.72,1.79,0.95l1.61,0.44
		c1.59,0.44,2.7,0.99,3.34,1.67s0.96,1.6,0.96,2.78c0,1.36-0.42,2.43-1.27,3.21c-0.84,0.78-2,1.17-3.46,1.17
		c-1.64,0-2.9-0.42-3.78-1.27c-0.88-0.85-1.33-2.06-1.33-3.64V458.68z"/>
	<path class="st5" d="M279.37,463.27V448.1h4.8c1.5,0,2.63,0.36,3.38,1.07c0.75,0.71,1.13,1.78,1.13,3.19
		c0,1.46-0.42,2.55-1.27,3.26c-0.84,0.71-2.13,1.07-3.86,1.07h-2.92v6.58H279.37z M280.64,455.42h2.94c1.36,0,2.33-0.24,2.92-0.73
		c0.59-0.48,0.89-1.27,0.89-2.35c0-1.03-0.26-1.79-0.79-2.27c-0.53-0.48-1.35-0.73-2.47-0.73h-3.48V455.42z"/>
	<path class="st5" d="M291.74,463.27l5.22-15.17h1.51l5.22,15.17h-1.33l-1.56-4.67h-6.17l-1.59,4.67H291.74z M295.04,457.39h5.34
		l-2.67-7.8L295.04,457.39z"/>
	<path class="st5" d="M317.8,448.1h1.26v9.56c0,1.68,0.31,2.9,0.94,3.66c0.63,0.76,1.63,1.13,3.02,1.13c1.39,0,2.4-0.38,3.03-1.13
		c0.63-0.76,0.95-1.97,0.95-3.66v-9.56h1.26v9.75c0,1.93-0.44,3.38-1.32,4.37c-0.88,0.98-2.19,1.47-3.92,1.47
		c-1.73,0-3.03-0.49-3.91-1.47c-0.87-0.98-1.31-2.44-1.31-4.37V448.1z"/>
	<path class="st5" d="M335.04,463.27V448.1h1.39l7.77,13.01V448.1h1.22v15.17h-1.4l-7.74-13.02v13.02H335.04z"/>
	<path class="st5" d="M355.57,448.1h0.93c1.13,0,1.98,0.07,2.55,0.2c0.57,0.13,1.06,0.34,1.47,0.63c0.85,0.59,1.49,1.46,1.94,2.61
		c0.45,1.15,0.67,2.52,0.67,4.12c0,1.72-0.24,3.17-0.73,4.35c-0.49,1.17-1.2,2.05-2.16,2.62c-0.4,0.23-0.89,0.4-1.47,0.5
		c-0.58,0.1-1.46,0.15-2.65,0.15h-3.78V448.1H355.57z M353.6,462.03h2.66c1.04,0,1.8-0.04,2.28-0.13c0.48-0.09,0.88-0.23,1.2-0.44
		c0.7-0.46,1.22-1.16,1.56-2.11c0.34-0.94,0.51-2.16,0.51-3.65c0-1.42-0.17-2.6-0.49-3.55c-0.33-0.94-0.82-1.65-1.48-2.13
		c-0.34-0.25-0.75-0.42-1.24-0.53c-0.49-0.1-1.32-0.15-2.48-0.15h-0.3h-2.22V462.03z"/>
	<path class="st5" d="M378.4,463.27V448.1h4.55c0.79,0,1.42,0.05,1.88,0.14c0.46,0.1,0.86,0.25,1.2,0.47
		c0.52,0.32,0.93,0.77,1.22,1.34c0.29,0.57,0.44,1.21,0.44,1.92c0,0.76-0.18,1.42-0.54,1.99c-0.36,0.57-0.86,1-1.51,1.29
		c0.83,0.2,1.49,0.65,1.97,1.34c0.48,0.7,0.71,1.56,0.71,2.58c0,0.89-0.19,1.66-0.57,2.32c-0.38,0.66-0.91,1.14-1.59,1.43
		c-0.27,0.12-0.69,0.21-1.25,0.26c-0.56,0.05-1.46,0.08-2.71,0.08H378.4z M382.73,449.35h-3.06v5.49h2.94
		c1.42,0,2.41-0.21,2.96-0.63c0.55-0.42,0.83-1.13,0.83-2.13c0-1-0.27-1.7-0.8-2.11C385.07,449.55,384.11,449.35,382.73,449.35z
		 M379.66,462.03h3.71c1.37,0,2.32-0.22,2.85-0.66c0.53-0.44,0.8-1.19,0.8-2.24c0-1.03-0.3-1.81-0.9-2.33
		c-0.6-0.52-1.48-0.78-2.65-0.78h-3.81V462.03z"/>
	<path class="st5" d="M394.47,463.27V448.1h9v1.25h-7.74v5.53h7.08v1.2h-7.08v5.94h7.98v1.25H394.47z"/>
	<path class="st5" d="M408.25,463.27l5.22-15.17h1.51l5.22,15.17h-1.33l-1.56-4.67h-6.17l-1.59,4.67H408.25z M411.55,457.39h5.34
		l-2.67-7.8L411.55,457.39z"/>
	<path class="st5" d="M425.05,448.1h1.26v9.56c0,1.68,0.31,2.9,0.94,3.66c0.63,0.76,1.63,1.13,3.02,1.13c1.39,0,2.4-0.38,3.03-1.13
		c0.63-0.76,0.95-1.97,0.95-3.66v-9.56h1.26v9.75c0,1.93-0.44,3.38-1.32,4.37c-0.88,0.98-2.19,1.47-3.92,1.47
		c-1.73,0-3.03-0.49-3.91-1.47c-0.87-0.98-1.31-2.44-1.31-4.37V448.1z"/>
	<path class="st5" d="M445.2,463.27v-13.92h-4.27v-1.25h9.83v1.25h-4.27v13.92H445.2z"/>
	<path class="st5" d="M459.5,463.27v-6.66l-4.86-8.51h1.45l4.04,7.18l4.05-7.18h1.45l-4.86,8.51v6.66H459.5z"/>
	<path class="st5" d="M479.11,458.68h1.26c0.01,1.19,0.35,2.12,1.03,2.78c0.67,0.66,1.62,0.99,2.84,0.99c1.07,0,1.91-0.27,2.53-0.8
		c0.61-0.53,0.92-1.27,0.92-2.2c0-0.87-0.21-1.52-0.64-1.98c-0.43-0.45-1.29-0.86-2.57-1.23l-1.31-0.36
		c-1.41-0.4-2.38-0.9-2.92-1.52c-0.54-0.61-0.81-1.48-0.81-2.59c0-1.23,0.41-2.21,1.22-2.96c0.82-0.74,1.91-1.11,3.27-1.11
		c1.44,0,2.57,0.41,3.39,1.22c0.81,0.81,1.23,1.94,1.25,3.4h-1.28c-0.02-1.08-0.32-1.91-0.92-2.5c-0.59-0.59-1.42-0.88-2.49-0.88
		c-1.01,0-1.79,0.25-2.34,0.75c-0.55,0.5-0.83,1.21-0.83,2.12c0,0.7,0.18,1.25,0.54,1.65c0.36,0.4,0.96,0.72,1.79,0.95l1.61,0.44
		c1.59,0.44,2.7,0.99,3.34,1.67s0.96,1.6,0.96,2.78c0,1.36-0.42,2.43-1.27,3.21c-0.84,0.78-2,1.17-3.46,1.17
		c-1.64,0-2.9-0.42-3.78-1.27c-0.88-0.85-1.33-2.06-1.33-3.64V458.68z"/>
	<path class="st5" d="M493.55,463.27l5.22-15.17h1.51l5.22,15.17h-1.33l-1.56-4.67h-6.17l-1.59,4.67H493.55z M496.85,457.39h5.34
		l-2.67-7.8L496.85,457.39z"/>
	<path class="st5" d="M510.79,463.27V448.1h1.3v13.92h7.02v1.25H510.79z"/>
	<path class="st5" d="M523.28,455.7c0-2.46,0.57-4.4,1.7-5.84c1.13-1.43,2.66-2.15,4.6-2.15c1.94,0,3.47,0.72,4.61,2.15
		c1.14,1.44,1.7,3.38,1.7,5.84c0,2.46-0.57,4.4-1.7,5.84c-1.14,1.43-2.67,2.15-4.61,2.15c-1.93,0-3.46-0.72-4.6-2.15
		C523.85,460.11,523.28,458.16,523.28,455.7z M524.59,455.7c0,2.07,0.45,3.72,1.35,4.93c0.9,1.21,2.11,1.82,3.64,1.82
		c1.54,0,2.76-0.6,3.66-1.81c0.9-1.21,1.35-2.85,1.35-4.93c0-2.09-0.45-3.74-1.35-4.95c-0.9-1.22-2.12-1.82-3.66-1.82
		c-1.51,0-2.72,0.61-3.63,1.84C525.04,451.99,524.59,453.64,524.59,455.7z"/>
	<path class="st5" d="M542.18,463.27V448.1h1.39l7.77,13.01V448.1h1.22v15.17h-1.4l-7.74-13.02v13.02H542.18z"/>
</g>
<linearGradient id="SVGID_4_" gradientUnits="userSpaceOnUse" x1="251.1249" y1="334.1265" x2="448.7772" y2="377.3995">
	<stop  offset="0" style="stop-color:#A97D27"/>
	<stop  offset="0.124" style="stop-color:#F2F1D4"/>
	<stop  offset="0.1589" style="stop-color:#E9E2BC"/>
	<stop  offset="0.2455" style="stop-color:#D5C38A"/>
	<stop  offset="0.3216" style="stop-color:#C7AD67"/>
	<stop  offset="0.3833" style="stop-color:#BFA052"/>
	<stop  offset="0.4229" style="stop-color:#BB9C4B"/>
	<stop  offset="0.592" style="stop-color:#B27E25"/>
	<stop  offset="0.6493" style="stop-color:#B38027"/>
	<stop  offset="0.6911" style="stop-color:#B7862F"/>
	<stop  offset="0.728" style="stop-color:#BE923D"/>
	<stop  offset="0.7621" style="stop-color:#C8A354"/>
	<stop  offset="0.7943" style="stop-color:#D5BA72"/>
	<stop  offset="0.8246" style="stop-color:#E6D799"/>
	<stop  offset="0.8312" style="stop-color:#EADEA3"/>
	<stop  offset="0.9704" style="stop-color:#8C672C"/>
</linearGradient>
<path class="st6" d="M332.6,357.59c0,0,14,22.13,38.91-4.8c24.91-26.92,35.51,4.63,35.51,4.63s12.9-30.59,37.31-2.08
	c24.41,28.51,38.94,4.68,38.94,4.68s-9.43,28.65-36.65,30.73c-27.23,2.08-34.37-35.25-52.78-12.95
	C375.42,400.1,343.37,386.78,332.6,357.59z"/>
<g class="st4">
	<path class="st5" d="M326.49,410.65h-0.99c-0.08-2.13-0.8-3.71-2.15-4.73c-1.17-0.83-3-1.24-5.5-1.24h-1.88
		c-0.17,1.62-0.25,3.07-0.25,4.36c0,1.24,0.11,2.32,0.34,3.25c0.22,0.93,0.53,1.68,0.91,2.25c0.52,0.69,1.23,1.23,2.14,1.6
		c0.91,0.37,1.99,0.56,3.26,0.56h1.5v0.9l-7.91,0.16v8.44c0,1.14,0.27,2.01,0.8,2.62c0.53,0.6,1.35,0.93,2.45,0.97v0.47h-9.93v-0.47
		c0.56-0.03,1.06-0.11,1.49-0.24c0.43-0.14,0.76-0.35,1-0.63h-0.02c0.51-0.54,0.76-1.45,0.76-2.71v-17.95
		c0-1.26-0.26-2.18-0.78-2.75c-0.48-0.5-1.29-0.77-2.45-0.82v-0.47h15.96c0.51,0,0.8-0.3,0.89-0.9h0.38V410.65z"/>
	<path class="st5" d="M360.98,404.68c-0.39,0.07-0.81,0.24-1.23,0.5c-0.43,0.27-0.86,0.6-1.3,1.02c-0.44,0.41-0.88,0.9-1.32,1.46
		c-0.44,0.56-0.87,1.16-1.28,1.81l-6.54,10.72v6.01c0,1.14,0.26,2.01,0.79,2.62c0.53,0.6,1.36,0.93,2.5,0.97v0.47h-9.99v-0.47
		c0.55-0.03,1.04-0.11,1.49-0.25c0.44-0.14,0.78-0.35,1.02-0.62c0.25-0.27,0.45-0.64,0.59-1.1c0.14-0.46,0.21-1,0.21-1.61v-5.99
		l-5.42-10.43c-0.38-0.73-0.72-1.36-1.03-1.88c-0.31-0.52-0.58-0.95-0.82-1.27c-0.9-1.18-1.88-1.83-2.95-1.94v-0.47h7.25v0.47
		c-0.55,0.07-0.82,0.34-0.82,0.82c0,0.2,0.03,0.37,0.11,0.51l7,13.35c3.68-5.51,5.52-9.51,5.52-11.98c0-1.13-0.4-1.89-1.2-2.28
		c-0.24-0.11-0.54-0.2-0.92-0.28c-0.37-0.07-0.85-0.12-1.42-0.13v-0.47h9.76V404.68z"/>
	<path class="st5" d="M398.66,415.99c0,2.62-0.79,5.19-2.38,7.7c-0.83,1.21-1.75,2.27-2.75,3.18c-1.01,0.91-2.11,1.66-3.32,2.24
		c-1.17,0.6-2.34,1.04-3.52,1.31c-1.18,0.28-2.38,0.42-3.61,0.42c-3.61,0-6.63-1.18-9.04-3.55c-2.45-2.34-3.67-5.25-3.67-8.74
		c0-2.02,0.38-3.9,1.13-5.62c0.75-1.72,1.89-3.33,3.43-4.81c1.53-1.51,3.19-2.64,4.99-3.38c1.79-0.75,3.69-1.12,5.7-1.12
		c1.1,0,2.16,0.14,3.19,0.41c1.03,0.27,2.02,0.65,2.95,1.14s1.81,1.07,2.64,1.75c0.82,0.68,1.56,1.43,2.22,2.24
		c0.63,0.94,1.13,1.99,1.5,3.16C398.48,413.49,398.66,414.72,398.66,415.99z M395.54,419.62c0-1.32-0.14-2.59-0.42-3.83
		c-0.28-1.24-0.69-2.4-1.22-3.48c-0.6-1.21-1.34-2.29-2.2-3.24c-0.86-0.95-1.82-1.73-2.88-2.34c-2.07-1.14-4.03-1.71-5.88-1.71
		c-1.49,0-2.81,0.25-3.96,0.73c-1.15,0.49-2.17,1.25-3.06,2.28c-1.62,1.81-2.42,4.16-2.42,7.07c0,1.88,0.28,3.63,0.84,5.28
		c0.56,1.64,1.38,3.15,2.47,4.52c1.24,1.48,2.65,2.63,4.23,3.43s3.31,1.21,5.2,1.21c1.41,0,2.67-0.25,3.79-0.76s2.14-1.27,3.06-2.27
		C394.72,424.66,395.54,422.36,395.54,419.62z"/>
	<path class="st5" d="M437.89,404.7c-1.31,0.22-2.3,1.38-2.96,3.5c-0.67,2.12-1,5.2-1,9.23v13.75h-0.59l-18.91-24.78v8.58
		c0,1.77,0.03,3.32,0.11,4.67c0.07,1.35,0.16,2.49,0.27,3.42c0.28,2,0.72,3.56,1.31,4.7c0.59,1.13,1.34,1.8,2.26,1.99v0.49h-8.77
		v-0.53c1.28-0.34,2.26-1.71,2.93-4.12c0.67-2.41,1.01-5.86,1.01-10.37v-7.17c0-1.25-0.27-2.11-0.8-2.59
		c-0.28-0.23-0.62-0.41-1.02-0.55s-0.88-0.22-1.42-0.25v-0.47h6.62l16.02,20.83v-6.97c0-8.42-1.29-12.88-3.88-13.37v-0.49h8.83
		V404.7z"/>
	<path class="st5" d="M454.73,426.2c0,1.14,0.26,2.01,0.79,2.62c0.53,0.6,1.36,0.93,2.5,0.97v0.47h-9.99v-0.47
		c0.59-0.03,1.11-0.11,1.55-0.24c0.44-0.14,0.78-0.35,1.02-0.63h-0.02c0.51-0.54,0.76-1.45,0.76-2.71v-17.93
		c0-1.36-0.25-2.28-0.76-2.77c-0.28-0.27-0.61-0.47-1-0.6c-0.39-0.13-0.9-0.2-1.55-0.21v-0.47h9.99v0.47
		c-0.54,0.03-1.03,0.11-1.49,0.26c-0.46,0.14-0.8,0.33-1.04,0.56c-0.24,0.26-0.43,0.62-0.56,1.09c-0.13,0.47-0.2,1.03-0.2,1.68
		V426.2z M454.98,416.77v-0.31c0.01,0.03,0.02,0.03,0.01,0.02c-0.01-0.01,0-0.01,0.03,0.02H455l0.13,0.12L454.98,416.77z
		 M472.5,430.26h-6.51c-0.37-0.48-0.73-0.95-1.1-1.43s-0.74-0.95-1.12-1.43c-0.27-0.34-0.53-0.68-0.79-1.02
		c-0.26-0.34-0.52-0.69-0.79-1.04c-1.1-1.41-2.23-2.87-3.39-4.38c-1.17-1.51-2.3-2.96-3.39-4.36c0.6-0.56,1.23-1.14,1.87-1.74
		c0.64-0.6,1.28-1.21,1.91-1.82l1.31-1.26c1.14-1.1,2.03-2.12,2.68-3.05c0.65-0.93,0.97-1.73,0.97-2.41c0-1.02-0.75-1.56-2.23-1.63
		v-0.47h9.3v0.49c-0.91,0.12-1.85,0.47-2.82,1.05c-0.96,0.58-1.96,1.36-3,2.35l-7.13,6.64c0.36,0.48,0.79,1.03,1.29,1.66
		c0.49,0.63,1,1.29,1.54,1.99c0.11,0.14,0.21,0.27,0.31,0.41c0.09,0.14,0.19,0.27,0.31,0.41c0.38,0.48,0.75,0.96,1.13,1.46
		c0.37,0.5,0.74,0.98,1.11,1.46c0.38,0.48,0.73,0.92,1.06,1.35c0.33,0.42,0.63,0.81,0.9,1.16c0.59,0.75,1.18,1.43,1.76,2.04
		c0.58,0.61,1.16,1.14,1.72,1.58c0.56,0.44,1.11,0.79,1.63,1.06c0.53,0.26,1.03,0.42,1.51,0.48V430.26z"/>
	<path class="st5" d="M506.6,430.26h-7.15v-0.47h0.21c0.42,0,0.63-0.33,0.63-1c0-0.22-0.04-0.41-0.11-0.57l-2.57-7.38h-9.91
		c-1,2.83-1.5,4.92-1.5,6.28c0,0.79,0.26,1.43,0.78,1.93c0.52,0.5,1.19,0.74,2,0.74h0.89v0.47h-9.09v-0.47
		c0.83-0.15,1.61-0.66,2.35-1.52c0.74-0.86,1.42-2.06,2.06-3.6c0.11-0.27,0.22-0.53,0.32-0.78c0.1-0.25,0.2-0.51,0.32-0.78
		c0.52-1.36,1.07-2.72,1.64-4.1c0.07-0.19,0.15-0.38,0.23-0.58c0.08-0.2,0.17-0.4,0.25-0.6c0.25-0.65,0.52-1.32,0.8-2.01
		c0.28-0.69,0.54-1.34,0.78-1.97c0.25-0.58,0.53-1.22,0.82-1.92c0.3-0.69,0.59-1.4,0.89-2.12c0.3-0.72,0.59-1.44,0.88-2.16
		c0.29-0.72,0.56-1.4,0.81-2.04c0.15-0.39,0.32-0.81,0.5-1.24c0.18-0.43,0.35-0.85,0.51-1.24h0.8c0.3,0.83,0.6,1.67,0.92,2.54
		c0.32,0.86,0.64,1.75,0.96,2.66c0.48,1.32,0.96,2.65,1.44,4c0.48,1.35,0.97,2.7,1.45,4.05c0.48,1.34,0.96,2.67,1.42,3.98
		c0.46,1.31,0.91,2.58,1.35,3.82c0.24,0.67,0.5,1.3,0.78,1.92c0.28,0.61,0.52,1.09,0.72,1.45c0.42,0.69,0.85,1.23,1.3,1.61
		c0.44,0.38,0.94,0.59,1.51,0.63V430.26z M497.26,420.13l-4.28-12.11l-4.98,12.11H497.26z"/>
</g>
<path d="M499.27,227.42c4.89-5.73,4.89-5.73,4.89-5.73s-9.47-4.56-15.11-8.9c-5.62-4.33-13.62-14.34-13.72-36.19
	c-0.1-21.85-6.06-32.72-6.06-32.72c-1.35-11.35,5.6,43.92-36.1,92.11c-41.36,47.82-36.07,81-5.24,106.48
	c-0.24-0.54-7.38-16.47,1.54-34.23c9.07-18.06,11.52-29.19,57.63-28.14c0,0,9.85,0.26,8.07-15.58c0,0-1.92-5.98,2.13-9.23
	c4.05-3.27-0.78-9.54-0.78-9.54s5.61-1.79,3.34-6.13C497.6,235.29,494.38,233.15,499.27,227.42z M416.53,310.45
	c-3-30.16,24.69-56.99,29.65-61.54c0.37-0.33,0.61-0.54,0.71-0.62C416.8,280.84,416.53,310.45,416.53,310.45z M410.61,303.06
	c-1.21-38.11,35.87-68.84,42.49-74.02c0.49-0.38,0.81-0.62,0.95-0.71C413.47,265.98,410.61,303.06,410.61,303.06z"/>
<path d="M435.31,177.25c0,0-27.03-47.86-66.2-41.48c0,0-2.49,42.67,51.11,55.07c0,0-34.28,10.29-44.66,37.71
	c0,0,23.89,14.66,54.72-21.2c0,0-7.83,8.52-29.79,8.72c0,0,10.56-19.84,31.42-24.95c0,0-32.03-11.4-36.25-34.54
	C395.66,156.58,416.47,157.94,435.31,177.25z"/>
<path d="M450.46,134.88c0,0-4.06,18.04-16.37,26.91c0,0,21.45,31.62-24.12,78.17C409.96,239.96,467.09,198.88,450.46,134.88z"/>
<g>
	<path d="M282.73,455.33h1.28c0.01,1.21,0.36,2.15,1.04,2.81c0.68,0.67,1.64,1,2.87,1c1.08,0,1.93-0.27,2.55-0.81
		c0.62-0.54,0.93-1.28,0.93-2.22c0-0.87-0.22-1.54-0.65-2c-0.43-0.46-1.3-0.87-2.6-1.24l-1.32-0.36c-1.42-0.4-2.41-0.91-2.95-1.54
		c-0.54-0.62-0.82-1.49-0.82-2.62c0-1.24,0.41-2.24,1.24-2.99c0.82-0.75,1.93-1.12,3.31-1.12c1.46,0,2.6,0.41,3.42,1.23
		c0.82,0.82,1.24,1.96,1.26,3.44H291c-0.02-1.09-0.33-1.93-0.93-2.53c-0.6-0.59-1.44-0.89-2.52-0.89c-1.02,0-1.81,0.25-2.37,0.76
		c-0.56,0.51-0.84,1.22-0.84,2.15c0,0.71,0.18,1.26,0.55,1.67c0.37,0.41,0.97,0.73,1.81,0.96l1.62,0.45c1.61,0.44,2.73,1,3.38,1.68
		s0.97,1.62,0.97,2.81c0,1.37-0.43,2.46-1.28,3.25c-0.85,0.79-2.02,1.19-3.5,1.19c-1.66,0-2.93-0.43-3.83-1.29
		c-0.89-0.86-1.34-2.08-1.34-3.68V455.33z"/>
	<path d="M298.98,459.97v-15.34h4.85c1.52,0,2.66,0.36,3.42,1.08c0.76,0.72,1.14,1.8,1.14,3.23c0,1.48-0.43,2.58-1.28,3.3
		c-0.85,0.72-2.16,1.08-3.91,1.08h-2.96v6.65H298.98z M300.26,452.04h2.98c1.37,0,2.36-0.24,2.96-0.73c0.6-0.49,0.9-1.28,0.9-2.38
		c0-1.04-0.27-1.81-0.8-2.3c-0.54-0.49-1.37-0.73-2.5-0.73h-3.52V452.04z"/>
	<path d="M311.48,459.97l5.28-15.34h1.53l5.28,15.34h-1.34l-1.57-4.72h-6.24l-1.6,4.72H311.48z M314.82,454.03h5.4l-2.71-7.89
		L314.82,454.03z"/>
	<path d="M337.84,444.63h1.28v9.66c0,1.7,0.32,2.93,0.95,3.7c0.63,0.76,1.65,1.15,3.06,1.15c1.4,0,2.43-0.38,3.06-1.15
		c0.64-0.76,0.96-2,0.96-3.7v-9.66h1.28v9.86c0,1.95-0.44,3.42-1.33,4.42c-0.89,0.99-2.21,1.49-3.97,1.49
		c-1.75,0-3.07-0.49-3.95-1.48c-0.88-0.99-1.33-2.46-1.33-4.42V444.63z"/>
	<path d="M355.28,459.97v-15.34h1.41l7.86,13.15v-13.15h1.24v15.34h-1.42l-7.83-13.17v13.17H355.28z"/>
	<path d="M376.03,444.63h0.94c1.15,0,2.01,0.07,2.58,0.2c0.57,0.13,1.07,0.34,1.48,0.64c0.86,0.6,1.51,1.48,1.96,2.64
		c0.45,1.16,0.68,2.55,0.68,4.17c0,1.74-0.25,3.21-0.74,4.39c-0.49,1.19-1.22,2.07-2.18,2.65c-0.4,0.24-0.9,0.4-1.48,0.51
		c-0.59,0.1-1.48,0.15-2.68,0.15h-3.83v-15.34H376.03z M374.04,458.71h2.69c1.05,0,1.82-0.04,2.3-0.13
		c0.48-0.09,0.89-0.23,1.21-0.44c0.71-0.47,1.23-1.18,1.58-2.13c0.35-0.95,0.52-2.19,0.52-3.69c0-1.44-0.17-2.63-0.5-3.59
		c-0.33-0.95-0.83-1.67-1.49-2.15c-0.34-0.25-0.76-0.43-1.25-0.53c-0.49-0.1-1.33-0.16-2.51-0.16h-0.3h-2.25V458.71z"/>
	<path d="M399.13,459.97v-15.34h4.6c0.8,0,1.43,0.05,1.9,0.15c0.47,0.1,0.87,0.26,1.21,0.48c0.53,0.33,0.94,0.78,1.24,1.36
		c0.3,0.58,0.44,1.23,0.44,1.94c0,0.76-0.18,1.43-0.54,2.01c-0.36,0.58-0.87,1.01-1.53,1.3c0.84,0.2,1.51,0.65,1.99,1.36
		c0.48,0.7,0.72,1.57,0.72,2.61c0,0.9-0.19,1.68-0.58,2.34c-0.39,0.67-0.92,1.15-1.61,1.45c-0.28,0.12-0.7,0.21-1.27,0.27
		c-0.57,0.05-1.48,0.08-2.74,0.08H399.13z M403.5,445.89h-3.1v5.55h2.98c1.44,0,2.43-0.21,2.99-0.64c0.56-0.42,0.84-1.14,0.84-2.16
		c0-1.01-0.27-1.72-0.81-2.13C405.87,446.1,404.9,445.89,403.5,445.89z M400.4,458.71h3.75c1.39,0,2.35-0.22,2.89-0.67
		c0.54-0.44,0.81-1.2,0.81-2.27c0-1.04-0.3-1.83-0.91-2.35c-0.6-0.53-1.5-0.79-2.68-0.79h-3.85V458.71z"/>
	<path d="M415.38,459.97v-15.34h9.1v1.26h-7.83v5.59h7.16v1.22h-7.16v6.01h8.07v1.26H415.38z"/>
	<path d="M429.31,459.97l5.28-15.34h1.53l5.28,15.34h-1.34l-1.57-4.72h-6.24l-1.6,4.72H429.31z M432.65,454.03h5.4l-2.71-7.89
		L432.65,454.03z"/>
	<path d="M446.31,444.63h1.28v9.66c0,1.7,0.32,2.93,0.95,3.7c0.63,0.76,1.65,1.15,3.06,1.15c1.4,0,2.43-0.38,3.06-1.15
		c0.64-0.76,0.96-2,0.96-3.7v-9.66h1.28v9.86c0,1.95-0.44,3.42-1.33,4.42c-0.89,0.99-2.21,1.49-3.97,1.49
		c-1.75,0-3.07-0.49-3.95-1.48c-0.88-0.99-1.33-2.46-1.33-4.42V444.63z"/>
	<path d="M466.68,459.97v-14.08h-4.32v-1.26h9.95v1.26H468v14.08H466.68z"/>
	<path d="M481.14,459.97v-6.74l-4.91-8.6h1.46l4.08,7.27l4.09-7.27h1.46l-4.91,8.6v6.74H481.14z"/>
	<path d="M500.97,455.33h1.28c0.01,1.21,0.36,2.15,1.04,2.81c0.68,0.67,1.64,1,2.87,1c1.08,0,1.93-0.27,2.55-0.81
		c0.62-0.54,0.93-1.28,0.93-2.22c0-0.87-0.22-1.54-0.65-2c-0.43-0.46-1.3-0.87-2.6-1.24l-1.32-0.36c-1.42-0.4-2.41-0.91-2.95-1.54
		c-0.54-0.62-0.82-1.49-0.82-2.62c0-1.24,0.41-2.24,1.24-2.99c0.82-0.75,1.93-1.12,3.31-1.12c1.46,0,2.6,0.41,3.42,1.23
		c0.82,0.82,1.24,1.96,1.26,3.44h-1.29c-0.02-1.09-0.33-1.93-0.93-2.53c-0.6-0.59-1.44-0.89-2.52-0.89c-1.02,0-1.81,0.25-2.37,0.76
		c-0.56,0.51-0.84,1.22-0.84,2.15c0,0.71,0.18,1.26,0.55,1.67c0.37,0.41,0.97,0.73,1.81,0.96l1.62,0.45c1.61,0.44,2.73,1,3.38,1.68
		s0.97,1.62,0.97,2.81c0,1.37-0.43,2.46-1.28,3.25c-0.85,0.79-2.02,1.19-3.5,1.19c-1.66,0-2.93-0.43-3.83-1.29
		c-0.89-0.86-1.34-2.08-1.34-3.68V455.33z"/>
	<path d="M515.57,459.97l5.28-15.34h1.53l5.28,15.34h-1.34l-1.57-4.72h-6.24l-1.6,4.72H515.57z M518.91,454.03h5.4l-2.71-7.89
		L518.91,454.03z"/>
	<path d="M533.01,459.97v-15.34h1.31v14.08h7.1v1.26H533.01z"/>
	<path d="M545.64,452.32c0-2.49,0.57-4.45,1.72-5.9c1.15-1.45,2.7-2.18,4.65-2.18c1.96,0,3.51,0.73,4.66,2.18
		c1.15,1.45,1.72,3.42,1.72,5.9c0,2.49-0.57,4.45-1.72,5.9c-1.15,1.45-2.7,2.18-4.66,2.18c-1.95,0-3.5-0.73-4.65-2.18
		C546.21,456.77,545.64,454.8,545.64,452.32z M546.96,452.32c0,2.1,0.45,3.76,1.36,4.98c0.91,1.23,2.13,1.84,3.68,1.84
		c1.56,0,2.79-0.61,3.7-1.83c0.91-1.22,1.37-2.88,1.37-4.99c0-2.11-0.46-3.78-1.37-5.01c-0.91-1.23-2.15-1.84-3.7-1.84
		c-1.53,0-2.75,0.62-3.67,1.86C547.42,448.56,546.96,450.23,546.96,452.32z"/>
	<path d="M564.75,459.97v-15.34h1.41l7.86,13.15v-13.15h1.24v15.34h-1.42l-7.83-13.17v13.17H564.75z"/>
</g>
<path d="M352.81,353.1c0,0,14.16,22.38,39.35-4.85c25.19-27.23,35.91,4.68,35.91,4.68s13.05-30.94,37.73-2.11s39.38,4.74,39.38,4.74
	s-9.53,28.98-37.07,31.08s-34.76-35.65-53.38-13.1S363.7,382.61,352.81,353.1z"/>
<g>
	<path d="M346.63,406.76h-1c-0.09-2.16-0.81-3.75-2.17-4.78c-1.18-0.84-3.03-1.26-5.56-1.26h-1.9c-0.17,1.64-0.26,3.11-0.26,4.41
		c0,1.25,0.11,2.35,0.34,3.29c0.23,0.94,0.53,1.7,0.92,2.28c0.53,0.7,1.25,1.24,2.16,1.62c0.92,0.38,2.01,0.57,3.29,0.57h1.51v0.91
		l-8,0.16v8.53c0,1.15,0.27,2.04,0.81,2.65c0.54,0.61,1.36,0.94,2.47,0.98v0.47h-10.04v-0.47c0.57-0.03,1.07-0.11,1.5-0.25
		c0.43-0.14,0.77-0.35,1.01-0.64h-0.02c0.51-0.55,0.77-1.46,0.77-2.74v-18.16c0-1.28-0.26-2.21-0.79-2.78
		c-0.48-0.51-1.31-0.78-2.47-0.82v-0.47h16.14c0.51,0,0.81-0.3,0.9-0.91h0.38V406.76z"/>
	<path d="M381.5,400.72c-0.4,0.07-0.81,0.24-1.25,0.51c-0.43,0.27-0.87,0.61-1.31,1.03c-0.44,0.42-0.89,0.91-1.33,1.47
		c-0.45,0.56-0.88,1.18-1.29,1.84l-6.61,10.84v6.08c0,1.15,0.27,2.04,0.8,2.65c0.53,0.61,1.38,0.94,2.53,0.98v0.47h-10.11v-0.47
		c0.55-0.03,1.06-0.11,1.5-0.26c0.45-0.14,0.79-0.35,1.03-0.63c0.26-0.27,0.46-0.64,0.6-1.11c0.14-0.47,0.21-1.01,0.21-1.63v-6.06
		l-5.48-10.55c-0.38-0.74-0.73-1.38-1.04-1.91c-0.31-0.53-0.59-0.96-0.83-1.29c-0.91-1.19-1.91-1.85-2.99-1.96v-0.47h7.33v0.47
		c-0.55,0.07-0.83,0.34-0.83,0.82c0,0.21,0.04,0.38,0.11,0.52l7.08,13.5c3.72-5.58,5.59-9.62,5.59-12.12c0-1.14-0.41-1.91-1.22-2.31
		c-0.24-0.11-0.55-0.2-0.93-0.28c-0.38-0.08-0.86-0.12-1.44-0.13v-0.47h9.87V400.72z"/>
	<path d="M419.62,412.16c0,2.65-0.8,5.25-2.41,7.79c-0.84,1.22-1.77,2.29-2.78,3.21c-1.02,0.92-2.14,1.68-3.36,2.27
		c-1.18,0.6-2.37,1.05-3.56,1.33c-1.19,0.28-2.41,0.42-3.65,0.42c-3.65,0-6.7-1.19-9.15-3.59c-2.47-2.36-3.71-5.31-3.71-8.84
		c0-2.05,0.38-3.94,1.14-5.69c0.76-1.74,1.92-3.37,3.46-4.86c1.55-1.53,3.23-2.67,5.04-3.42c1.81-0.76,3.73-1.13,5.77-1.13
		c1.11,0,2.19,0.14,3.23,0.41c1.04,0.27,2.04,0.66,2.98,1.15c0.95,0.49,1.83,1.09,2.67,1.77c0.83,0.69,1.58,1.44,2.25,2.27
		c0.64,0.95,1.14,2.01,1.51,3.19C419.43,409.63,419.62,410.87,419.62,412.16z M416.46,415.83c0-1.33-0.14-2.62-0.43-3.87
		c-0.28-1.25-0.7-2.42-1.24-3.52c-0.61-1.22-1.35-2.32-2.23-3.28c-0.87-0.96-1.84-1.75-2.91-2.37c-2.09-1.15-4.07-1.73-5.95-1.73
		c-1.51,0-2.84,0.25-4.01,0.74c-1.17,0.49-2.2,1.26-3.09,2.31c-1.63,1.83-2.45,4.21-2.45,7.15c0,1.9,0.28,3.68,0.85,5.34
		c0.57,1.66,1.4,3.19,2.49,4.58c1.25,1.5,2.68,2.65,4.27,3.47c1.6,0.82,3.35,1.23,5.26,1.23c1.42,0,2.7-0.26,3.84-0.77
		c1.14-0.52,2.17-1.28,3.09-2.3C415.63,420.92,416.46,418.6,416.46,415.83z"/>
	<path d="M459.29,400.74c-1.32,0.22-2.32,1.4-3,3.54c-0.67,2.14-1.01,5.26-1.01,9.34v13.91h-0.6l-19.12-25.06v8.68
		c0,1.79,0.04,3.36,0.11,4.72c0.07,1.36,0.16,2.51,0.28,3.46c0.28,2.02,0.73,3.6,1.32,4.75c0.6,1.15,1.36,1.82,2.28,2.01v0.49h-8.87
		v-0.54c1.29-0.34,2.28-1.73,2.96-4.16c0.68-2.43,1.02-5.93,1.02-10.49v-7.25c0-1.26-0.27-2.14-0.81-2.62
		c-0.28-0.23-0.63-0.42-1.03-0.56c-0.4-0.14-0.89-0.22-1.44-0.25v-0.47h6.7l16.2,21.06v-7.05c0-8.52-1.31-13.02-3.92-13.52v-0.49
		h8.93V400.74z"/>
	<path d="M476.31,422.48c0,1.15,0.27,2.04,0.8,2.65c0.53,0.61,1.37,0.94,2.53,0.98v0.47h-10.11v-0.47c0.6-0.03,1.12-0.11,1.57-0.25
		c0.45-0.14,0.79-0.35,1.03-0.64h-0.02c0.51-0.55,0.77-1.46,0.77-2.74v-18.13c0-1.37-0.26-2.31-0.77-2.8
		c-0.28-0.27-0.62-0.48-1.01-0.61c-0.39-0.13-0.91-0.2-1.57-0.22v-0.47h10.11v0.47c-0.54,0.03-1.04,0.11-1.5,0.26
		c-0.46,0.14-0.81,0.33-1.05,0.57c-0.24,0.26-0.43,0.63-0.56,1.1c-0.14,0.47-0.2,1.04-0.2,1.7V422.48z M476.57,412.94v-0.31
		c0.01,0.03,0.02,0.03,0.01,0.02c-0.01-0.01,0-0.01,0.03,0.02h-0.02l0.13,0.12L476.57,412.94z M494.29,426.58h-6.59
		c-0.37-0.48-0.74-0.96-1.11-1.44c-0.37-0.48-0.75-0.96-1.13-1.44c-0.27-0.34-0.54-0.69-0.8-1.03c-0.26-0.34-0.53-0.69-0.8-1.05
		c-1.11-1.43-2.25-2.91-3.43-4.43c-1.18-1.52-2.32-2.99-3.43-4.41c0.61-0.56,1.24-1.15,1.89-1.76s1.29-1.23,1.93-1.84l1.32-1.28
		c1.15-1.11,2.05-2.14,2.71-3.08c0.65-0.94,0.98-1.75,0.98-2.44c0-1.03-0.75-1.58-2.26-1.65v-0.47h9.4v0.49
		c-0.92,0.12-1.87,0.48-2.85,1.06c-0.97,0.58-1.99,1.38-3.04,2.38l-7.21,6.72c0.37,0.48,0.8,1.04,1.3,1.68
		c0.5,0.64,1.02,1.31,1.56,2.01c0.11,0.14,0.22,0.27,0.31,0.41c0.09,0.14,0.19,0.27,0.31,0.41c0.38,0.48,0.76,0.97,1.14,1.47
		c0.38,0.5,0.75,0.99,1.12,1.47c0.38,0.48,0.74,0.93,1.08,1.36c0.33,0.43,0.64,0.82,0.91,1.17c0.6,0.76,1.19,1.44,1.78,2.06
		c0.59,0.62,1.17,1.15,1.74,1.6c0.57,0.45,1.12,0.8,1.65,1.07c0.53,0.27,1.04,0.43,1.53,0.48V426.58z"/>
	<path d="M528.77,426.58h-7.23v-0.47h0.21c0.43,0,0.64-0.34,0.64-1.01c0-0.22-0.04-0.41-0.11-0.58l-2.6-7.46h-10.02
		c-1.01,2.86-1.51,4.97-1.51,6.35c0,0.8,0.26,1.45,0.79,1.95c0.53,0.5,1.2,0.75,2.03,0.75h0.9v0.47h-9.19v-0.47
		c0.84-0.15,1.63-0.66,2.38-1.53c0.75-0.87,1.44-2.08,2.08-3.64c0.11-0.27,0.22-0.54,0.32-0.79s0.21-0.52,0.32-0.79
		c0.53-1.37,1.08-2.75,1.66-4.14c0.07-0.19,0.15-0.39,0.23-0.59c0.08-0.2,0.17-0.4,0.26-0.61c0.26-0.66,0.53-1.34,0.81-2.03
		c0.28-0.69,0.55-1.36,0.79-1.99c0.26-0.59,0.53-1.24,0.83-1.94c0.3-0.7,0.6-1.41,0.9-2.14c0.3-0.73,0.59-1.46,0.89-2.18
		c0.29-0.73,0.56-1.41,0.82-2.06c0.16-0.4,0.33-0.82,0.51-1.26c0.19-0.44,0.36-0.86,0.51-1.26h0.81c0.3,0.84,0.61,1.69,0.93,2.57
		c0.32,0.87,0.64,1.77,0.97,2.69c0.48,1.33,0.97,2.68,1.46,4.05c0.49,1.37,0.98,2.73,1.47,4.09c0.49,1.36,0.97,2.7,1.44,4.03
		c0.47,1.33,0.92,2.61,1.37,3.86c0.24,0.67,0.5,1.32,0.79,1.94c0.28,0.62,0.53,1.1,0.73,1.46c0.43,0.7,0.86,1.24,1.31,1.63
		c0.45,0.38,0.96,0.6,1.52,0.64V426.58z M519.33,416.34L515,404.1l-5.03,12.24H519.33z"/>
</g>
</svg>
